<svg width="24" height="24" viewBox="0 0 24 24" fill="none" xmlns="http://www.w3.org/2000/svg">
<path d="M19.9902 2.00195C19.8589 2.00188 19.7288 2.02769 19.6075 2.07792C19.4861 2.12815 19.3758 2.20181 19.283 2.29468C19.1901 2.38755 19.1164 2.49782 19.0662 2.61918C19.016 2.74054 18.9902 2.87061 18.9902 3.00195V3.63867C18.1468 4.68438 17.0809 5.52887 15.87 6.11067C14.6591 6.69248 13.3337 6.99696 11.9902 7.00195H5.99023C5.19485 7.00282 4.43229 7.31917 3.86987 7.88159C3.30745 8.44401 2.9911 9.20657 2.99023 10.002V12.002C2.9911 12.7973 3.30745 13.5599 3.86987 14.1223C4.43229 14.6847 5.19485 15.0011 5.99023 15.002H6.47402L4.07129 20.6084C4.006 20.7604 3.97949 20.9263 3.99415 21.0911C4.0088 21.256 4.06417 21.4146 4.15527 21.5528C4.24637 21.6909 4.37035 21.8043 4.51609 21.8827C4.66182 21.9611 4.82475 22.0021 4.99023 22.002H8.99023C9.18599 22.0021 9.37746 21.9446 9.54084 21.8368C9.70422 21.729 9.83231 21.5755 9.90918 21.3955L12.6329 15.04C13.8636 15.1303 15.0626 15.472 16.1561 16.0439C17.2495 16.6158 18.2141 17.4058 18.9902 18.365V19.002C18.9902 19.2672 19.0956 19.5215 19.2831 19.7091C19.4707 19.8966 19.725 20.002 19.9902 20.002C20.2555 20.002 20.5098 19.8966 20.6973 19.7091C20.8849 19.5215 20.9902 19.2672 20.9902 19.002V3.00195C20.9903 2.87061 20.9645 2.74054 20.9143 2.61918C20.864 2.49782 20.7904 2.38755 20.6975 2.29468C20.6046 2.2018 20.4944 2.12815 20.373 2.07792C20.2516 2.02769 20.1216 2.00188 19.9902 2.00195ZM5.99023 13.002C5.72507 13.0018 5.47082 12.8964 5.28332 12.7089C5.09583 12.5214 4.99041 12.2671 4.99023 12.002V10.002C4.99041 9.73679 5.09583 9.48254 5.28333 9.29505C5.47082 9.10755 5.72507 9.00213 5.99023 9.00195H6.99023V13.002H5.99023ZM8.33105 20.002H6.50683L8.64941 15.002H10.4736L8.33105 20.002ZM18.9902 15.5238C17.0185 13.8994 14.5449 13.0082 11.9902 13.0019H8.99023V9.0019H11.9902C14.545 8.99537 17.0185 8.10406 18.9902 6.47956V15.5238Z" fill="black"/>
</svg>
