<svg width="68" height="68" viewBox="0 0 68 68" fill="none" xmlns="http://www.w3.org/2000/svg">
<g filter="url(#filter0_d_934_7306)">
<circle cx="34" cy="30" r="26" fill="#B5D8CB"/>
</g>
<path d="M41 29H35V23C35 22.7348 34.8946 22.4804 34.7071 22.2929C34.5196 22.1054 34.2652 22 34 22C33.7348 22 33.4804 22.1054 33.2929 22.2929C33.1054 22.4804 33 22.7348 33 23V29H27C26.7348 29 26.4804 29.1054 26.2929 29.2929C26.1054 29.4804 26 29.7348 26 30C26 30.2652 26.1054 30.5196 26.2929 30.7071C26.4804 30.8946 26.7348 31 27 31H33V37C33 37.2652 33.1054 37.5196 33.2929 37.7071C33.4804 37.8946 33.7348 38 34 38C34.2652 38 34.5196 37.8946 34.7071 37.7071C34.8946 37.5196 35 37.2652 35 37V31H41C41.2652 31 41.5196 30.8946 41.7071 30.7071C41.8946 30.5196 42 30.2652 42 30C42 29.7348 41.8946 29.4804 41.7071 29.2929C41.5196 29.1054 41.2652 29 41 29Z" fill="black"/>
<defs>
<filter id="filter0_d_934_7306" x="0" y="0" width="68" height="68" filterUnits="userSpaceOnUse" color-interpolation-filters="sRGB">
<feFlood flood-opacity="0" result="BackgroundImageFix"/>
<feColorMatrix in="SourceAlpha" type="matrix" values="0 0 0 0 0 0 0 0 0 0 0 0 0 0 0 0 0 0 127 0" result="hardAlpha"/>
<feOffset dy="4"/>
<feGaussianBlur stdDeviation="4"/>
<feComposite in2="hardAlpha" operator="out"/>
<feColorMatrix type="matrix" values="0 0 0 0 0 0 0 0 0 0 0 0 0 0 0 0 0 0 0.25 0"/>
<feBlend mode="normal" in2="BackgroundImageFix" result="effect1_dropShadow_934_7306"/>
<feBlend mode="normal" in="SourceGraphic" in2="effect1_dropShadow_934_7306" result="shape"/>
</filter>
</defs>
</svg>
