<svg width="24" height="24" viewBox="0 0 24 24" fill="none" xmlns="http://www.w3.org/2000/svg">
<path d="M20.3393 9.31988L6.33927 2.31988C5.78676 2.04489 5.16289 1.94699 4.55271 2.03954C3.94252 2.13208 3.37573 2.41055 2.9296 2.837C2.48347 3.26345 2.17972 3.81711 2.05976 4.42249C1.9398 5.02788 2.00947 5.65554 2.25927 6.21988L4.65927 11.5899C4.71373 11.7197 4.74177 11.8591 4.74177 11.9999C4.74177 12.1407 4.71373 12.2801 4.65927 12.4099L2.25927 17.7799C2.05597 18.2366 1.97003 18.7369 2.00925 19.2353C2.04847 19.7336 2.21161 20.2143 2.48385 20.6336C2.75609 21.0529 3.1288 21.3975 3.56809 21.6361C4.00739 21.8747 4.49935 21.9998 4.99927 21.9999C5.4675 21.9952 5.92876 21.8859 6.34927 21.6799L20.3493 14.6799C20.8459 14.4301 21.2633 14.0472 21.555 13.574C21.8466 13.1007 22.0011 12.5558 22.0011 11.9999C22.0011 11.444 21.8466 10.899 21.555 10.4258C21.2633 9.95258 20.8459 9.5697 20.3493 9.31988H20.3393ZM19.4493 12.8899L5.44927 19.8899C5.26543 19.9782 5.059 20.0081 4.85766 19.9757C4.65631 19.9434 4.46968 19.8502 4.32278 19.7087C4.17589 19.5673 4.07575 19.3843 4.0358 19.1843C3.99585 18.9843 4.018 18.7769 4.09927 18.5899L6.48927 13.2199C6.52021 13.1482 6.54692 13.0747 6.56927 12.9999H13.4593C13.7245 12.9999 13.9788 12.8945 14.1664 12.707C14.3539 12.5195 14.4593 12.2651 14.4593 11.9999C14.4593 11.7347 14.3539 11.4803 14.1664 11.2928C13.9788 11.1052 13.7245 10.9999 13.4593 10.9999H6.56927C6.54692 10.9251 6.52021 10.8516 6.48927 10.7799L4.09927 5.40988C4.018 5.22285 3.99585 5.01543 4.0358 4.81545C4.07575 4.61547 4.17589 4.43249 4.32278 4.29103C4.46968 4.14958 4.65631 4.05641 4.85766 4.02404C5.059 3.99166 5.26543 4.02161 5.44927 4.10988L19.4493 11.1099C19.6131 11.1938 19.7505 11.3213 19.8465 11.4783C19.9425 11.6354 19.9933 11.8158 19.9933 11.9999C19.9933 12.1839 19.9425 12.3644 19.8465 12.5214C19.7505 12.6785 19.6131 12.806 19.4493 12.8899Z" fill="black"/>
</svg>
