<svg width="68" height="68" viewBox="0 0 68 68" fill="none" xmlns="http://www.w3.org/2000/svg">
<g filter="url(#filter0_d_994_4355)">
<circle cx="34" cy="30" r="26" fill="#F5F5F5"/>
</g>
<path d="M35.4099 29.9999L39.7099 25.7099C39.8982 25.5216 40.004 25.2662 40.004 24.9999C40.004 24.7336 39.8982 24.4782 39.7099 24.2899C39.5216 24.1016 39.2662 23.9958 38.9999 23.9958C38.7336 23.9958 38.4782 24.1016 38.2899 24.2899L33.9999 28.5899L29.7099 24.2899C29.5216 24.1016 29.2662 23.9958 28.9999 23.9958C28.7336 23.9958 28.4782 24.1016 28.2899 24.2899C28.1016 24.4782 27.9958 24.7336 27.9958 24.9999C27.9958 25.2662 28.1016 25.5216 28.2899 25.7099L32.5899 29.9999L28.2899 34.2899C28.1962 34.3829 28.1218 34.4935 28.071 34.6154C28.0203 34.7372 27.9941 34.8679 27.9941 34.9999C27.9941 35.132 28.0203 35.2627 28.071 35.3845C28.1218 35.5064 28.1962 35.617 28.2899 35.7099C28.3829 35.8037 28.4935 35.8781 28.6154 35.9288C28.7372 35.9796 28.8679 36.0057 28.9999 36.0057C29.132 36.0057 29.2627 35.9796 29.3845 35.9288C29.5064 35.8781 29.617 35.8037 29.7099 35.7099L33.9999 31.4099L38.2899 35.7099C38.3829 35.8037 38.4935 35.8781 38.6154 35.9288C38.7372 35.9796 38.8679 36.0057 38.9999 36.0057C39.132 36.0057 39.2627 35.9796 39.3845 35.9288C39.5064 35.8781 39.617 35.8037 39.7099 35.7099C39.8037 35.617 39.8781 35.5064 39.9288 35.3845C39.9796 35.2627 40.0057 35.132 40.0057 34.9999C40.0057 34.8679 39.9796 34.7372 39.9288 34.6154C39.8781 34.4935 39.8037 34.3829 39.7099 34.2899L35.4099 29.9999Z" fill="black"/>
<defs>
<filter id="filter0_d_994_4355" x="0" y="0" width="68" height="68" filterUnits="userSpaceOnUse" color-interpolation-filters="sRGB">
<feFlood flood-opacity="0" result="BackgroundImageFix"/>
<feColorMatrix in="SourceAlpha" type="matrix" values="0 0 0 0 0 0 0 0 0 0 0 0 0 0 0 0 0 0 127 0" result="hardAlpha"/>
<feOffset dy="4"/>
<feGaussianBlur stdDeviation="4"/>
<feComposite in2="hardAlpha" operator="out"/>
<feColorMatrix type="matrix" values="0 0 0 0 0 0 0 0 0 0 0 0 0 0 0 0 0 0 0.25 0"/>
<feBlend mode="normal" in2="BackgroundImageFix" result="effect1_dropShadow_994_4355"/>
<feBlend mode="normal" in="SourceGraphic" in2="effect1_dropShadow_994_4355" result="shape"/>
</filter>
</defs>
</svg>
