<svg width="24" height="24" viewBox="0 0 24 24" fill="none" xmlns="http://www.w3.org/2000/svg">
<g id="Arrows / right arrow">
<path id="Vector" d="M8.45929 12.71L14.1193 18.36C14.2122 18.4537 14.3228 18.5281 14.4447 18.5789C14.5666 18.6296 14.6973 18.6558 14.8293 18.6558C14.9613 18.6558 15.092 18.6296 15.2139 18.5789C15.3357 18.5281 15.4463 18.4537 15.5393 18.36C15.7255 18.1726 15.8301 17.9191 15.8301 17.655C15.8301 17.3908 15.7255 17.1373 15.5393 16.95L10.5893 11.95L15.5393 6.99996C15.7255 6.8126 15.8301 6.55915 15.8301 6.29496C15.8301 6.03078 15.7255 5.77733 15.5393 5.58996C15.4467 5.49548 15.3362 5.42031 15.2144 5.36881C15.0925 5.31731 14.9616 5.29051 14.8293 5.28996C14.697 5.29051 14.5661 5.31731 14.4442 5.36881C14.3223 5.42031 14.2119 5.49548 14.1193 5.58996L8.45929 11.24C8.35778 11.3336 8.27677 11.4473 8.22136 11.5738C8.16596 11.7003 8.13735 11.8369 8.13735 11.975C8.13735 12.1131 8.16596 12.2497 8.22136 12.3762C8.27677 12.5027 8.35778 12.6163 8.45929 12.71Z" fill="black"/>
</g>
</svg>
