<svg width="9" height="12" viewBox="0 0 9 12" fill="none" xmlns="http://www.w3.org/2000/svg">
<g id="&#240;&#159;&#166;&#134; emoji &#34;light bulb&#34;">
<path id="Vector" d="M9.00093 4.08111C9.00093 1.82716 6.98992 0 4.50925 0C2.02858 0 0.0175781 1.82719 0.0175781 4.08111C0.0175781 5.10036 0.428854 6.0323 1.10879 6.7475H1.10876L2.09124 8.31431C2.34784 8.73228 2.4431 9.00216 2.87311 9.00216H6.07664C6.50668 9.00216 6.63319 8.71795 6.85851 8.31431L7.90974 6.7475H7.90969C8.58962 6.0323 9.00093 5.10036 9.00093 4.08111Z" fill="#FFE46A"/>
<path id="Vector_2" d="M0.294369 4.57813C0.294369 2.24896 2.28984 0.323928 4.88036 0.0153787C4.75222 0.00539156 4.62265 0 4.49167 0C2.011 0 0 1.82719 0 4.08111C0 4.82283 0.217968 5.51818 0.598602 6.11754C0.401617 5.63618 0.294369 5.118 0.294369 4.57813Z" fill="#FFF0B7"/>
<path id="Vector_3" d="M8.99909 4.09C8.99909 3.28269 8.74103 2.53018 8.29587 1.89673C8.38981 2.22346 8.43936 2.56189 8.43936 2.90869C8.43936 5.59044 5.48785 7.77447 1.80078 7.86292L2.0894 8.32323C2.34601 8.7412 2.44126 9.01109 2.87127 9.01109H6.07481C6.50485 9.01109 6.63136 8.72687 6.85668 8.32323L7.90791 6.75642H7.90785C8.58779 6.0412 8.99909 5.10926 8.99909 4.09Z" fill="#FFDA00"/>
<path id="Vector_4" d="M6.39674 4.78127C6.40109 4.77791 6.40541 4.77483 6.40979 4.77113C6.49112 4.70266 6.5581 4.59344 6.50204 4.49213C6.2721 4.07683 5.56906 3.94507 5.05678 4.08261C5.03083 4.08957 5.00568 4.09714 4.98125 4.10533C4.7022 3.96199 4.35574 3.92754 4.04737 4.0137C4.01016 4.0241 3.97432 4.03606 3.94003 4.04949C3.77121 3.96271 3.57373 3.91943 3.37697 3.93616C2.96514 3.97121 2.60727 4.26505 2.53636 4.62299L2.50391 4.64066C2.78456 5.03966 3.52327 6.18292 3.5706 6.67488C3.63028 7.29553 3.57066 8.98022 3.57005 8.99717L3.92007 9.0069C3.92258 8.93699 3.98095 7.28731 3.91952 6.6489C3.89214 6.36425 3.69416 5.91057 3.33107 5.30048C3.1616 5.0157 2.99707 4.76569 2.89747 4.61817C2.96634 4.42186 3.17792 4.26263 3.41068 4.24284C3.48157 4.23681 3.55347 4.24379 3.62229 4.26156C3.59623 4.291 3.57355 4.3222 3.55458 4.35496C3.43648 4.55868 3.48583 4.81447 3.66936 4.94998C3.77807 5.03021 3.936 5.05976 4.08163 5.027C4.21724 4.9965 4.32207 4.91809 4.3692 4.81188C4.41154 4.71642 4.40795 4.60623 4.35849 4.48438C4.32983 4.4138 4.28964 4.34785 4.2403 4.28785C4.37191 4.2653 4.50951 4.27221 4.63748 4.30695C4.58743 4.35765 4.54914 4.41409 4.52395 4.47527C4.47014 4.60623 4.49393 4.76186 4.58606 4.88148C4.66546 4.98459 4.78613 5.04587 4.91722 5.04967C4.9216 5.0498 4.92601 5.04988 4.93036 5.04988C5.04519 5.04988 5.15419 5.00643 5.23859 4.92672C5.33772 4.83308 5.38818 4.7031 5.37353 4.57899C5.36422 4.50009 5.33232 4.42292 5.28096 4.35134C5.63804 4.29427 5.98734 4.4004 6.13845 4.56151C6.04725 4.69501 5.85998 4.97511 5.66632 5.30053C5.30326 5.91065 5.10522 6.36433 5.07788 6.64895C5.01648 7.28736 5.07484 8.93704 5.07732 9.00695L5.42734 8.99722C5.42673 8.98028 5.36711 7.29568 5.42679 6.67493C5.46937 6.23203 6.07211 5.26169 6.39674 4.78127ZM4.04293 4.69986C4.03479 4.71824 4.00409 4.72643 3.99487 4.72851C3.95839 4.7367 3.91709 4.73072 3.89442 4.71401C3.83561 4.67059 3.82283 4.57026 3.86649 4.49496C3.88 4.47165 3.89821 4.44941 3.92048 4.42864C3.96749 4.47557 4.00488 4.52944 4.02866 4.58803C4.04807 4.63578 4.05326 4.67658 4.04293 4.69986ZM4.98233 4.71665C4.97209 4.72628 4.95125 4.74212 4.92866 4.74171C4.90441 4.74102 4.88521 4.72068 4.8759 4.70862C4.84692 4.67095 4.83761 4.61806 4.85326 4.58002C4.87129 4.53611 4.90611 4.5002 4.94673 4.47129C4.99196 4.51624 5.01972 4.56459 5.02517 4.6108C5.02938 4.646 5.01213 4.68851 4.98233 4.71665Z" fill="#FAAF63"/>
<path id="Vector_5" d="M6.22255 9.698H2.77793C2.58532 9.698 2.42773 9.83664 2.42773 10.0061V10.1847C2.42773 10.3541 2.58532 10.4928 2.77793 10.4928H3.89045C3.55872 10.6014 3.20847 10.8595 3.20847 11.1589V11.2791C3.4747 11.5423 3.72264 12 4.19491 12H4.83373C5.20575 12 5.47003 11.6467 5.79198 11.2791V11.1589C5.79198 10.8595 5.45781 10.6014 5.13396 10.4928H6.22255C6.41516 10.4928 6.57274 10.3541 6.57274 10.1847V10.0061C6.57274 9.83664 6.41516 9.698 6.22255 9.698Z" fill="#6B83A5"/>
<path id="Vector_6" d="M6.46909 9.69786H2.52988C2.33728 9.69786 2.17969 9.55923 2.17969 9.38978V9.21116C2.17969 9.04172 2.33728 8.90308 2.52988 8.90308H6.46909C6.6617 8.90308 6.81929 9.04172 6.81929 9.21116V9.38978C6.81929 9.55923 6.6617 9.69786 6.46909 9.69786ZM6.26461 10.9794V10.8008C6.26461 10.6313 6.10702 10.4927 5.91441 10.4927H3.08456C2.89196 10.4927 2.73437 10.6313 2.73437 10.8008V10.9794C2.73437 11.1488 2.89196 11.2875 3.08456 11.2875H5.91441C6.10702 11.2875 6.26461 11.1488 6.26461 10.9794Z" fill="#ABBDDB"/>
</g>
</svg>
