<svg width="24" height="24" viewBox="0 0 24 24" fill="none" xmlns="http://www.w3.org/2000/svg">
<path d="M21.9995 9.6699C21.9363 9.48699 21.8215 9.32633 21.6688 9.2074C21.5162 9.08848 21.3323 9.0164 21.1395 8.9999L15.4495 8.1699L12.8995 2.9999C12.8176 2.83083 12.6898 2.68824 12.5306 2.58847C12.3714 2.48871 12.1873 2.43579 11.9995 2.43579C11.8116 2.43579 11.6276 2.48871 11.4684 2.58847C11.3092 2.68824 11.1814 2.83083 11.0995 2.9999L8.54949 8.1599L2.85949 8.9999C2.67441 9.02621 2.50041 9.10386 2.35724 9.22406C2.21407 9.34425 2.10745 9.50218 2.04949 9.6799C1.99643 9.85358 1.99167 10.0384 2.03572 10.2146C2.07976 10.3908 2.17095 10.5516 2.29949 10.6799L6.42949 14.6799L5.42949 20.3599C5.38912 20.5483 5.40404 20.7444 5.47247 20.9245C5.54091 21.1047 5.65993 21.2612 5.81522 21.3753C5.97051 21.4894 6.15546 21.5562 6.34782 21.5676C6.54018 21.5791 6.73175 21.5347 6.89949 21.4399L11.9995 18.7699L17.0995 21.4399C17.2398 21.5191 17.3983 21.5604 17.5595 21.5599C17.7713 21.5607 17.9779 21.4941 18.1495 21.3699C18.3046 21.2588 18.4247 21.1055 18.4956 20.9284C18.5665 20.7512 18.5852 20.5574 18.5495 20.3699L17.5495 14.6899L21.6795 10.6899C21.8239 10.5676 21.9306 10.4068 21.9872 10.2262C22.0439 10.0457 22.0481 9.85278 21.9995 9.6699ZM15.8495 13.6699C15.7337 13.7823 15.6469 13.9211 15.5964 14.0743C15.5459 14.2275 15.5333 14.3907 15.5595 14.5499L16.2795 18.7499L12.5195 16.7499C12.3734 16.6776 12.2125 16.64 12.0495 16.64C11.8865 16.64 11.7256 16.6776 11.5795 16.7499L7.81949 18.7499L8.53949 14.5499C8.56573 14.3907 8.55306 14.2275 8.50256 14.0743C8.45206 13.9211 8.36523 13.7823 8.24949 13.6699L5.24949 10.6699L9.45949 10.0599C9.62149 10.0374 9.77549 9.97544 9.90799 9.87955C10.0405 9.78366 10.1474 9.65674 10.2195 9.5099L11.9995 5.6999L13.8795 9.5199C13.9515 9.66674 14.0585 9.79366 14.191 9.88955C14.3235 9.98544 14.4775 10.0474 14.6395 10.0699L18.8495 10.6799L15.8495 13.6699Z" fill="black"/>
</svg>
